<?xml version="1.0" encoding="UTF-8" standalone="no"?><!-- Generator: Gravit.io --><svg xmlns="http://www.w3.org/2000/svg" xmlns:xlink="http://www.w3.org/1999/xlink" style="isolation:isolate" viewBox="0 0 472.5 218.6" width="472.5pt" height="218.6pt"><defs><clipPath id="_clipPath_AqCPhnJH7SEcSHHZb0lo4VSeM5vQQIvF"><rect width="472.5" height="218.6"/></clipPath></defs><g clip-path="url(#_clipPath_AqCPhnJH7SEcSHHZb0lo4VSeM5vQQIvF)"><path d=" M 116.5 129.022 C 114.3 129.022 112.5 130.822 112.5 133.022 L 112.5 140.022 C 112.5 142.222 114.3 144.022 116.5 144.022 C 118.7 144.022 120.5 142.222 120.5 140.022 L 120.5 133.022 C 120.5 130.822 118.7 129.022 116.5 129.022 Z  M 107.5 140.022 C 107.5 144.627 111.023 148.452 115.5 148.96 L 115.5 153.022 L 117.5 153.022 L 117.5 148.959 C 121.977 148.452 125.5 144.627 125.5 140.022 L 123.5 140.022 C 123.5 143.877 120.355 147.022 116.5 147.022 C 112.645 147.022 109.5 143.877 109.5 140.022 L 107.5 140.022 Z " fill="rgb(0,0,0)"/><path d=" M 158.903 128.507 C 156.703 128.507 154.903 130.307 154.903 132.507 L 154.903 139.507 C 154.903 141.707 156.703 143.507 158.903 143.507 C 161.103 143.507 162.903 141.707 162.903 139.507 L 162.903 132.507 C 162.903 130.307 161.103 128.507 158.903 128.507 Z  M 149.903 139.507 C 149.903 144.112 153.426 147.937 157.903 148.445 L 157.903 152.507 L 159.903 152.507 L 159.903 148.444 C 164.38 147.937 167.903 144.112 167.903 139.507 L 165.903 139.507 C 165.903 143.362 162.758 146.507 158.903 146.507 C 155.048 146.507 151.903 143.362 151.903 139.507 L 149.903 139.507 Z " fill="rgb(0,0,0)"/><path d=" M 423.745 162.58 L 423.001 162.58 L 423 163.606 L 423 162.58 L 376.224 162.58 C 375.793 162.58 375.38 162.478 375 162.304 L 375 162.58 C 375 163.711 375.897 164.632 377 164.632 L 423 164.632 C 424.103 164.632 425 163.711 425 162.58 L 425 162.293 C 424.607 162.481 424.179 162.578 423.745 162.58 Z  M 379.854 144.111 L 420.083 144.111 C 420.766 144.111 421.42 144.357 422 144.679 L 422 117.434 C 422 116.302 421.103 115.382 420 115.382 L 380 115.382 C 378.897 115.382 378 116.302 378 117.434 L 378 144.651 C 378.565 144.348 379.195 144.111 379.854 144.111 Z  M 383 120.512 L 417 120.512 L 417 141.033 L 383 141.033 L 383 120.512 Z  M 424.719 159.268 L 422.125 147.909 C 421.905 146.948 421.027 146.223 420.083 146.223 L 379.854 146.223 C 378.912 146.223 378.034 146.947 377.812 147.91 L 375.25 159.268 C 375.18 159.573 375.249 159.894 375.439 160.14 C 375.629 160.386 375.918 160.529 376.224 160.528 L 423.745 160.528 C 424.051 160.528 424.339 160.384 424.528 160.139 C 424.718 159.894 424.789 159.573 424.719 159.268 Z  M 408.405 148.214 L 408.631 150.267 L 404.213 150.267 L 404.138 148.214 L 408.405 148.214 Z  M 397.863 148.215 L 402.136 148.214 L 402.212 150.267 L 397.789 150.267 L 397.863 148.215 Z  M 397.713 152.319 L 402.287 152.319 L 402.362 154.371 L 397.638 154.371 L 397.713 152.319 Z  M 391.594 148.215 L 395.862 148.215 L 395.787 150.267 L 391.369 150.267 L 391.594 148.215 Z  M 388.906 154.371 L 384.205 154.371 L 384.58 152.319 L 389.131 152.319 L 388.906 154.371 Z  M 389.356 150.267 L 384.955 150.267 L 385.33 148.215 L 389.581 148.215 L 389.356 150.267 Z  M 390.918 154.371 L 391.143 152.319 L 395.711 152.319 L 395.636 154.371 L 390.918 154.371 Z  M 394.693 158.476 L 394.876 158.003 C 395.105 157.096 395.999 156.424 397 156.424 L 403 156.424 C 404.001 156.424 404.895 157.095 405.124 158.002 L 405.281 158.476 L 394.693 158.476 Z  M 404.363 154.371 L 404.288 152.319 L 408.855 152.319 L 409.081 154.371 L 404.363 154.371 Z  M 410.419 148.214 L 414.67 148.214 L 415.046 150.267 L 410.645 150.267 L 410.419 148.214 Z  M 411.095 154.371 L 410.869 152.319 L 415.421 152.319 L 415.796 154.371 L 411.095 154.371 Z " fill="rgb(0,0,0)"/><g><path d=" M 283.375 136.278 L 283.375 148.236 L 253.625 148.236 L 253.625 136.278 L 283.375 136.278 Z  M 283.375 134.569 L 253.625 134.569 C 251.288 134.569 249.375 135.338 249.375 136.278 L 249.375 148.236 C 249.375 149.176 251.288 149.944 253.625 149.944 L 283.375 149.944 C 285.713 149.944 287.625 149.176 287.625 148.236 L 287.625 136.278 C 287.625 135.338 285.713 134.569 283.375 134.569 Z " fill="rgb(0,0,0)"/><path d=" M 243 132.007 L 294 132.007 L 294 152.507 L 243 152.507 L 243 132.007 Z " fill="none"/></g><path d=" M 276.25 137.726 C 273.631 137.726 271.5 139.759 271.5 142.257 C 271.5 144.755 273.631 146.788 276.25 146.788 C 278.869 146.788 281 144.755 281 142.257 C 281 139.759 278.869 137.726 276.25 137.726 Z  M 276.25 138.549 C 278.402 138.549 280.136 140.204 280.136 142.257 C 280.136 144.309 278.402 145.964 276.25 145.964 C 274.098 145.964 272.364 144.309 272.364 142.257 C 272.364 140.204 274.098 138.549 276.25 138.549 Z " fill="rgb(0,0,0)"/><path d=" M 258.75 139.991 C 257.51 139.991 256.5 141.008 256.5 142.257 C 256.5 143.506 257.51 144.522 258.75 144.522 C 259.99 144.522 261 143.506 261 142.257 C 261 141.008 259.99 139.991 258.75 139.991 Z  M 258.75 140.403 C 259.769 140.403 260.591 141.231 260.591 142.257 C 260.591 143.283 259.769 144.111 258.75 144.111 C 257.731 144.111 256.909 143.283 256.909 142.257 C 256.909 141.231 257.731 140.403 258.75 140.403 Z " fill="rgb(0,0,0)"/><path d=" M 266.25 139.991 C 265.01 139.991 264 141.008 264 142.257 C 264 143.506 265.01 144.522 266.25 144.522 C 267.49 144.522 268.5 143.506 268.5 142.257 C 268.5 141.008 267.49 139.991 266.25 139.991 Z  M 266.25 140.403 C 267.269 140.403 268.091 141.231 268.091 142.257 C 268.091 143.283 267.269 144.111 266.25 144.111 C 265.231 144.111 264.409 143.283 264.409 142.257 C 264.409 141.231 265.231 140.403 266.25 140.403 Z " fill="rgb(0,0,0)"/><path d=" M 331.119 126.007 L 331.119 130.007 L 306.821 130.007 L 306.821 134.007 L 331.119 134.007 L 331.119 138.007 L 351 132.007 L 331.119 126.007 Z " fill="rgb(0,0,0)"/><path d=" M 213.298 134.507 L 213.298 138.507 L 189 138.507 L 189 142.507 L 213.298 142.507 L 213.298 146.507 L 233.179 140.507 L 213.298 134.507 Z " fill="rgb(0,0,0)"/><path d=" M 326.702 144.257 L 326.702 148.257 L 351 148.257 L 351 152.257 L 326.702 152.257 L 326.702 156.257 L 306.821 150.257 L 326.702 144.257 Z " fill="rgb(0,0,0)"/><g clip-path="url(#_clipPath_YXARZAbPbLelGm5pF1cXqYdf98FGxOX8)"><text transform="matrix(1,0,0,1,230,183.452)" style="font-family:'Open Sans';font-weight:700;font-size:10px;font-style:normal;fill:#000000;stroke:none;">Audio Interface</text></g><defs><clipPath id="_clipPath_YXARZAbPbLelGm5pF1cXqYdf98FGxOX8"><rect x="0" y="0" width="80" height="13.618" transform="matrix(1,0,0,1,230,172.764)"/></clipPath></defs><g clip-path="url(#_clipPath_LZ5yR69ZiPkBtW0lwK3OMWE9bGzm3pZT)"><text transform="matrix(1,0,0,1,220,38.013)" style="font-family:'Open Sans';font-weight:700;font-size:10px;font-style:normal;fill:#000000;stroke:none;">Video Output to Projector</text></g><defs><clipPath id="_clipPath_LZ5yR69ZiPkBtW0lwK3OMWE9bGzm3pZT"><rect x="0" y="0" width="131" height="13.618" transform="matrix(1,0,0,1,220,27.325)"/></clipPath></defs><g clip-path="url(#_clipPath_dwP5ySwLz0bvvpzMD1cP1HUS4DCqVuzS)"><text transform="matrix(1,0,0,1,92.5,147.746)" style="font-family:'Open Sans';font-weight:700;font-size:18px;font-style:normal;fill:#000000;stroke:none;">L</text></g><defs><clipPath id="_clipPath_dwP5ySwLz0bvvpzMD1cP1HUS4DCqVuzS"><rect x="0" y="0" width="13" height="24" transform="matrix(1,0,0,1,92.5,128.507)"/></clipPath></defs><g clip-path="url(#_clipPath_yonLAA2Fk9xwJzRxLoQAv9cSzxgvuPPe)"><text transform="matrix(1,0,0,1,133.173,147.746)" style="font-family:'Open Sans';font-weight:700;font-size:18px;font-style:normal;fill:#000000;stroke:none;">R</text></g><defs><clipPath id="_clipPath_yonLAA2Fk9xwJzRxLoQAv9cSzxgvuPPe"><rect x="0" y="0" width="14" height="24" transform="matrix(1,0,0,1,133.173,128.507)"/></clipPath></defs><path d=" M 395 81.618 L 399 81.656 L 398.77 105.954 L 402.77 105.991 L 403 81.694 L 406.999 81.732 L 401.188 61.796 L 395 81.618 Z " fill="rgb(0,0,0)"/><g clip-path="url(#_clipPath_CH0hrF166QJ1bbx4rQbQLWUJRaCVYwdq)"><text transform="matrix(1,0,0,1,352.868,183.452)" style="font-family:'Open Sans';font-weight:700;font-size:10px;font-style:normal;fill:#000000;stroke:none;">Computer Running</text><text transform="matrix(1,0,0,1,359.577,197.07)" style="font-family:'Open Sans';font-weight:700;font-size:10px;font-style:normal;fill:#000000;stroke:none;">Max Application</text></g><defs><clipPath id="_clipPath_CH0hrF166QJ1bbx4rQbQLWUJRaCVYwdq"><rect x="0" y="0" width="97" height="27.236" transform="matrix(1,0,0,1,352.5,172.764)"/></clipPath></defs><line x1="428" y1="292.633" x2="418" y2="292.633"/><g clip-path="url(#_clipPath_4y4KM0ByJ1ZHb1JcFMP83s213L5RZfJB)"><text transform="matrix(1,0,0,1,10,144.902)" style="font-family:'Open Sans';font-weight:700;font-size:10px;font-style:normal;fill:#000000;stroke:none;">Microphones</text></g><defs><clipPath id="_clipPath_4y4KM0ByJ1ZHb1JcFMP83s213L5RZfJB"><rect x="0" y="0" width="67" height="13.618" transform="matrix(1,0,0,1,10,134.213)"/></clipPath></defs><path d=" M 373.307 9.874 C 368.719 9.874 365 13.707 365 18.436 L 365 41.269 C 365 45.998 368.719 49.831 373.307 49.831 L 428.692 49.831 C 433.28 49.831 437 45.998 437 41.269 L 437 18.436 C 437 13.707 433.28 9.874 428.692 9.874 L 373.307 9.874 Z  M 417.615 15.405 C 425.356 15.41 431.63 21.875 431.636 29.853 C 431.631 37.831 425.357 44.298 417.615 44.303 C 409.874 44.298 403.599 37.831 403.595 29.853 C 403.599 21.874 409.874 15.407 417.615 15.402 L 417.615 15.405 Z  M 417.615 21.827 C 415.549 21.825 413.567 22.669 412.105 24.175 C 410.644 25.68 409.824 27.723 409.825 29.853 C 409.823 31.983 410.643 34.026 412.104 35.532 C 413.566 37.038 415.548 37.883 417.615 37.881 C 419.682 37.883 421.664 37.038 423.126 35.532 C 424.587 34.026 425.407 31.983 425.405 29.853 C 425.407 27.723 424.587 25.679 423.126 24.173 C 421.664 22.667 419.682 21.822 417.615 21.824 L 417.615 21.827 Z  M 374.692 24.144 L 394.077 24.144 C 394.841 24.144 395.461 24.783 395.461 25.571 C 395.461 26.36 394.841 26.999 394.077 26.999 L 374.692 26.999 C 374.324 27 373.971 26.85 373.711 26.582 C 373.451 26.314 373.306 25.95 373.307 25.571 C 373.307 24.781 373.925 24.144 374.692 24.144 Z  M 374.692 29.853 L 394.077 29.853 C 394.841 29.853 395.461 30.492 395.461 31.28 C 395.461 32.068 394.841 32.707 394.077 32.707 L 374.692 32.707 C 374.324 32.708 373.971 32.558 373.711 32.29 C 373.451 32.022 373.306 31.659 373.307 31.28 C 373.307 30.489 373.925 29.853 374.692 29.853 Z  M 374.692 35.561 L 394.077 35.561 C 394.841 35.561 395.461 36.2 395.461 36.988 C 395.461 37.776 394.841 38.415 394.077 38.415 L 374.692 38.415 C 374.324 38.416 373.971 38.267 373.711 37.999 C 373.451 37.731 373.306 37.367 373.307 36.988 C 373.307 36.197 373.925 35.561 374.692 35.561 Z  M 373.307 52.685 L 373.307 55.539 C 373.307 57.109 374.554 58.394 376.077 58.394 L 381.615 58.394 C 383.138 58.394 384.384 57.109 384.384 55.539 L 384.384 52.685 L 373.307 52.685 Z  M 417.615 52.685 L 417.615 55.539 C 417.615 57.109 418.861 58.394 420.384 58.394 L 425.923 58.394 C 427.446 58.394 428.692 57.109 428.692 55.539 L 428.692 52.685 L 417.615 52.685 Z " fill="rgb(0,0,0)"/></g></svg>